<?xml version="1.0" encoding="utf-8"?>
<!-- Generator: Adobe Illustrator 19.0.0, SVG Export Plug-In . SVG Version: 6.00 Build 0)  -->
<svg version="1.1" id="Layer_1" vector-effect="non-scaling-stroke"
	 xmlns="http://www.w3.org/2000/svg" xmlns:xlink="http://www.w3.org/1999/xlink" x="0px" y="0px" width="145px" height="80px"
	 viewBox="260 151 145 80" style="enable-background:new 260 151 145 80;" xml:space="preserve">
<style type="text/css">
	.st0{opacity:0.5;}
	.st1{fill:#FFFFFF;}
	.st2{fill:none;stroke:#000000;stroke-miterlimit:10;}
	.st3{fill:none;stroke:#000000;stroke-miterlimit:10;stroke-dasharray:2,2;}
	.st4{fill:none;stroke:#349489;stroke-opacity:0.6;}
	.st5{opacity:0.6;fill:none;stroke:#BD8A37;}
	.st6{fill:none;stroke:#000000;}
	.st7{font-family:'OpenSans';}
	.st8{font-size:11px;}
	.st9{fill:none;stroke:#000000;stroke-miterlimit:10;stroke-dasharray:1.7143,1.7143;}
</style>
<g class="st0">
	<line class="st1" x1="269.5" y1="187" x2="269.5" y2="167"/>
	<g>
		<line class="st2" x1="269.5" y1="187" x2="269.5" y2="186"/>
		<line class="st3" x1="269.5" y1="184" x2="269.5" y2="169"/>
		<line class="st2" x1="269.5" y1="168" x2="269.5" y2="167"/>
	</g>
</g>
<g>
	<g>
		<line class="st4" x1="306" y1="187.6" x2="329.5" y2="192.4"/>
		<line class="st4" x1="306" y1="187.6" x2="324.1" y2="193.6"/>
		<line class="st4" x1="306" y1="187.6" x2="316.8" y2="193.6"/>
		<line class="st4" x1="306" y1="187.6" x2="328.6" y2="190"/>
	</g>
	<g>
		<g>
			<g>
				<line class="st5" x1="306" y1="187.6" x2="329.5" y2="181.9"/>
			</g>
			<g>
				<line class="st5" x1="306" y1="187.6" x2="324.1" y2="180.5"/>
			</g>
			<g>
				<line class="st5" x1="306" y1="187.6" x2="316.8" y2="180.5"/>
			</g>
			<g>
				<line class="st5" x1="306" y1="187.6" x2="328.6" y2="184.8"/>
			</g>
		</g>
	</g>
</g>
<g>
	<g>
		<line class="st4" x1="282.9" y1="187.4" x2="294.2" y2="190.1"/>
		<line class="st4" x1="282.9" y1="187.4" x2="291.6" y2="190.8"/>
		<line class="st4" x1="282.9" y1="187.4" x2="288.1" y2="190.8"/>
		<line class="st4" x1="282.9" y1="187.4" x2="293.7" y2="188.7"/>
	</g>
	<g>
		<g>
			<g>
				<line class="st5" x1="282.9" y1="187.4" x2="294.2" y2="184.2"/>
			</g>
			<g>
				<line class="st5" x1="282.9" y1="187.4" x2="291.6" y2="183.4"/>
			</g>
			<g>
				<line class="st5" x1="282.9" y1="187.4" x2="288.1" y2="183.4"/>
			</g>
			<g>
				<line class="st5" x1="282.9" y1="187.4" x2="293.7" y2="185.8"/>
			</g>
		</g>
	</g>
</g>
<g>
	<g>
		<line class="st4" x1="341" y1="187.9" x2="366.5" y2="195.9"/>
		<line class="st4" x1="341" y1="187.9" x2="360.6" y2="198"/>
		<line class="st4" x1="341" y1="187.9" x2="352.8" y2="198"/>
		<line class="st4" x1="341" y1="187.9" x2="371" y2="188.4"/>
	</g>
	<g>
		<g>
			<g>
				<line class="st5" x1="341" y1="187.9" x2="365.2" y2="179.3"/>
			</g>
			<g>
				<line class="st5" x1="341" y1="187.9" x2="360.6" y2="176.2"/>
			</g>
			<g>
				<line class="st5" x1="341" y1="187.9" x2="352.8" y2="176.2"/>
			</g>
			<g>
				<line class="st5" x1="341" y1="187.9" x2="370.5" y2="184.8"/>
			</g>
		</g>
	</g>
</g>
<line class="st6" x1="263.6" y1="188.1" x2="380.5" y2="188.1"/>
<circle class="st6" cx="307" cy="188.1" r="2.1"/>
<circle class="st6" cx="283.7" cy="188.1" r="1.3"/>
<circle class="st6" cx="342" cy="188.1" r="5.9"/>
<text transform="matrix(1 0 0 1 261 161)" class="st0 st7 st8">Stroke</text>
<text transform="matrix(1 0 0 1 314 161)" class="st0 st7 st8">Sampled strokes</text>
<text transform="matrix(1 0 0 1 274 225)" class="st0 st7 st8">Probability pen is raised</text>
<g class="st0">
	<line class="st1" x1="341.5" y1="211" x2="341.5" y2="191"/>
	<g>
		<line class="st2" x1="341.5" y1="211" x2="341.5" y2="210"/>
		<line class="st3" x1="341.5" y1="208" x2="341.5" y2="193"/>
		<line class="st2" x1="341.5" y1="192" x2="341.5" y2="191"/>
	</g>
</g>
<g class="st0">
	<line class="st1" x1="318.5" y1="181" x2="318.5" y2="167"/>
	<g>
		<line class="st2" x1="318.5" y1="181" x2="318.5" y2="180"/>
		<line class="st9" x1="318.5" y1="178.3" x2="318.5" y2="168.9"/>
		<line class="st2" x1="318.5" y1="168" x2="318.5" y2="167"/>
	</g>
</g>
</svg>
